<?xml version="1.0" encoding="UTF-8" standalone="no"?>
<svg width="128" height="128" viewBox="0 0 128 128" fill="none" version="1.1" xmlns="http://www.w3.org/2000/svg"
  xmlns:svg="http://www.w3.org/2000/svg">
  <g id="android_16_platlogo" transform="matrix(0.44903686,0,0,0.44903686,-50.516092,-56.504054)">
    <g id="baklava_tray_star">
      <path id="slice15" d="m 196.971,198.17 h 60.869 l -60.869,60.87 z" fill="#1f8e3d" />
      <path id="slice14" d="M 318.709,319.909 H 257.84 l 60.869,-60.869 z" fill="#1f8e3d" />
      <path id="slice13" d="m 318.709,198.17 v 60.87 L 257.84,198.17 Z" fill="#34a853" />
      <path id="slice12" d="M 196.971,319.909 V 259.04 l 60.869,60.869 z" fill="#34a853" />
      <path id="slice11" d="M 257.84,259.04 H 196.971 L 257.84,198.171 Z" fill="#34a853" />
      <path id="slice10" d="M 257.84,198.17 H 196.971 L 257.84,137.301 Z" fill="#34a853" />
      <path id="slice09" d="m 257.84,319.909 h 60.869 l -60.869,60.869 z" fill="#34a853" />
      <path id="slice08" d="m 257.84,259.04 h 60.869 l -60.869,60.87 z" fill="#34a853" />
      <path id="slice07" d="m 318.709,259.04 h 60.87 l -60.87,60.87 z" fill="#34a853" />
      <path id="slice06" d="m 196.971,259.04 h -60.87 l 60.87,-60.869 z" fill="#34a853" />
      <path id="slice05" d="m 257.84,259.04 v -60.869 l 60.869,60.869 z" fill="#1f8e3d" />
      <path id="slice04" d="m 257.84,198.17 v -60.869 l 60.869,60.869 z" fill="#1f8e3d" />
      <path id="slice03" d="m 257.84,319.909 v 60.869 l -60.869,-60.869 z" fill="#1f8e3d" />
      <path id="slice02" d="m 318.709,259.04 v -60.869 l 60.87,60.869 z" fill="#1f8e3d" />
      <path id="slice01" d="m 196.971,259.04 v 60.87 l -60.87,-60.87 z" fill="#1f8e3d" />
      <path id="slice00" d="m 257.84,259.04 v 60.87 l -60.869,-60.87 z" fill="#1f8e3d" />
    </g>
    <rect id="diamond_outline" x="257.84" y="128.70599" width="184.32001" height="184.32001" rx="10.2494"
      transform="rotate(45,257.84,128.706)" stroke="#5f6368" stroke-width="14.3349" />
    <g id="zoomy">
      <path id="Subtract" fill-rule="evenodd" clip-rule="evenodd"
        d="m 172.353,318.422 c 0.465,-0.585 0.425,-1.435 -0.104,-1.963 v 0 c -0.618,-0.618 -1.643,-0.554 -2.189,0.128 -36.669,45.83 -55.876,82.05 -46.139,91.787 14.588,14.588 88.614,-35.788 165.343,-112.517 7.354,-7.354 14.465,-14.682 21.301,-21.936 0.74,-0.786 0.721,-2.018 -0.043,-2.782 l -4.185,-4.185 c -0.799,-0.798 -2.099,-0.778 -2.874,0.044 -6.791,7.204 -13.876,14.505 -21.215,21.844 -69.976,69.976 -136.5,116.905 -148.586,104.818 -7.636,-7.636 8.284,-37.001 38.691,-75.238 z"
        fill="#c6ff00" />
    </g>
    <g id="droidship">
      <g id="sensors">
        <path id="AD"
          d="m 347.267,248.089 c 1.6,-0.429 3.245,0.521 3.674,2.121 0.429,1.6 -0.521,3.245 -2.121,3.674 z m 1.553,5.795 -27.368,7.333 -1.553,-5.795 27.368,-7.333 z"
          fill="#000000" />
        <path id="AS"
          d="m 325.111,230.175 c 0.429,-1.6 2.074,-2.55 3.674,-2.121 1.601,0.429 2.55,2.074 2.122,3.674 z m 5.796,1.553 -7.334,27.368 -5.795,-1.553 7.333,-27.368 z"
          fill="#000000" />
      </g>
      <path id="craft"
        d="m 335.665,242.984 c -8.171,-8.171 -21.231,-8.361 -29.167,-0.425 l -17.724,17.724 c -1.531,1.531 -1.531,4.017 0,5.548 1.532,1.532 4.017,1.532 5.549,0 l 4.777,-4.777 c 3.065,-3.065 8.032,-3.065 11.097,0 l 7.398,7.398 c 3.065,3.065 3.065,8.032 0,11.097 l -4.777,4.777 c -1.532,1.532 -1.532,4.018 0,5.549 1.531,1.531 4.017,1.531 5.548,0 l 17.724,-17.724 c 7.936,-7.936 7.746,-20.996 -0.425,-29.167 z"
        fill="#000000" />
    </g>
  </g>
</svg>