<svg width="128" height="128" viewBox="23 23 60 60" fill="none" xmlns="http://www.w3.org/2000/svg">
  <g opacity="0.85">
    <path d="M35.9022 58.0762C36.1235 56.9551 37.1068 56.147 38.2496 56.147H68.1142C69.257 56.147 70.2402 56.9551 70.4616 58.0762L74.0841 76.4248C74.3761 77.9037 73.2442 79.2809 71.7367 79.2809H34.6271C33.1196 79.2809 31.9877 77.9037 32.2797 76.4248L35.9022 58.0762Z" fill="#3D76D5"/>
    <path d="M37.8265 58.7334C37.9419 58.1784 38.4309 57.7805 38.9978 57.7805H67.3661C67.933 57.7805 68.422 58.1784 68.5374 58.7334L72.1367 76.0505C72.2911 76.7932 71.724 77.4903 70.9654 77.4903H35.3985C34.6399 77.4903 34.0729 76.7932 34.2272 76.0505L37.8265 58.7334Z" fill="#202124"/>
    <path d="M68.2004 67.9675C68.3258 68.3646 68.1292 68.7937 67.7467 68.9577V68.9577C67.3642 69.1216 66.9218 68.9662 66.726 68.5993L64.7815 64.9544C64.4529 64.3385 64.7234 63.5695 65.3654 63.2943V63.2943C66.0075 63.0192 66.7434 63.3569 66.954 64.0234L68.2004 67.9675Z" fill="#034ECA"/>
    <path d="M68.2004 67.9675C68.3258 68.3646 68.1292 68.7937 67.7467 68.9577V68.9577C67.3642 69.1216 66.9218 68.9662 66.726 68.5993L64.7815 64.9544C64.4529 64.3385 64.7234 63.5695 65.3654 63.2943V63.2943C66.0075 63.0192 66.7434 63.3569 66.954 64.0234L68.2004 67.9675Z" fill="url(#paint0_linear_1036_1274)"/>
    <mask id="mask0_1036_1274" style="mask-type:alpha" maskUnits="userSpaceOnUse" x="56" y="30" width="22" height="26">
      <path d="M66.4923 54.7563C66.9604 54.4417 67.4044 54.0987 67.8215 53.7309C68.1748 53.4199 68.509 53.0905 68.8236 52.7457C69.2274 52.3024 69.5992 51.833 69.9365 51.3415C70.3499 50.7391 70.7114 50.1032 71.0171 49.4412C71.1456 49.1633 71.2646 48.8809 71.3729 48.5945C71.6086 47.9741 71.7965 47.3347 71.9353 46.6826C71.9446 46.6846 71.9543 46.6857 71.9636 46.6876C72.4701 46.7772 72.9761 46.8676 73.4826 46.9572C73.9772 47.0451 74.4718 47.1331 74.9664 47.2211C75.3215 47.2844 75.6771 47.3475 76.032 47.4102C76.1163 47.4252 76.1998 47.4305 76.2823 47.4275C76.5118 47.4185 76.7289 47.3422 76.9106 47.2151C76.9555 47.1833 76.9982 47.149 77.0384 47.1117C77.0786 47.0743 77.1164 47.0339 77.1514 46.9911C77.2708 46.8442 77.3564 46.6659 77.3941 46.4672C77.4276 46.2914 77.4203 46.1112 77.3752 45.9402C77.356 45.8688 77.3302 45.7991 77.2982 45.7323C77.2716 45.6769 77.2405 45.6238 77.2055 45.5728C77.0796 45.3909 76.9021 45.2445 76.6903 45.1573C76.614 45.1261 76.5338 45.1023 76.4495 45.0873C76.0944 45.024 75.7388 44.9609 75.3839 44.8982L73.9001 44.6343C73.3936 44.5447 72.8876 44.4543 72.3811 44.3647C72.3259 44.355 72.2705 44.3447 72.2147 44.3352C72.216 44.2929 72.2175 44.2511 72.2182 44.2089C72.2441 42.6813 71.9982 41.1243 71.4498 39.6038C71.4347 39.5621 71.4199 39.521 71.4043 39.4795C70.9032 38.1324 70.2004 36.9192 69.3428 35.8618C69.2436 35.7392 69.1421 35.6195 69.0386 35.5018C69.0725 35.4615 69.1061 35.4206 69.14 35.3802C69.471 34.9835 69.8013 34.5865 70.1324 34.1898C70.4554 33.802 70.7784 33.4143 71.1014 33.0265C71.3332 32.748 71.5656 32.4693 71.7976 32.1914C71.8527 32.1253 71.899 32.0551 71.9375 31.9818C72.0443 31.7778 72.087 31.5506 72.0677 31.3296C72.062 31.2679 72.052 31.2071 72.0371 31.1474C72.0191 31.0755 71.9945 31.0054 71.9636 30.9382C71.8898 30.7777 71.7806 30.6349 71.6424 30.522C71.4869 30.3942 71.3079 30.3135 71.1226 30.2777C71.0686 30.2676 71.0138 30.2611 70.9592 30.2585C70.9045 30.2559 70.8498 30.2567 70.7953 30.2621C70.5752 30.2823 70.3601 30.3645 70.1785 30.5062C70.1134 30.5573 70.0528 30.6155 69.9977 30.6815C69.7659 30.96 69.5335 31.2387 69.3015 31.5167C68.9785 31.9044 68.6555 32.2922 68.3325 32.6799C68.0014 33.0766 67.6711 33.4737 67.3401 33.8704C67.3372 33.8734 67.3345 33.8771 67.3316 33.8801C66.8508 33.5012 66.3456 33.1577 65.8184 32.8523C65.5024 32.6696 65.1794 32.5001 64.8496 32.3451C64.1938 32.0363 63.5116 31.783 62.8107 31.5884C62.2389 31.4297 61.6554 31.3105 61.0632 31.2331C60.6024 31.1726 60.1365 31.1366 59.6675 31.1271C59.1135 31.1154 58.5548 31.1401 57.9956 31.2021C57.4386 31.264 56.8808 31.3636 56.3268 31.5008L65.0213 55.6069C65.5279 55.3559 66.0215 55.0727 66.4923 54.7563Z" fill="#34A853"/>
    </mask>
    <g mask="url(#mask0_1036_1274)">
      <rect width="27.3627" height="15.3667" transform="matrix(0.338903 0.940821 -0.938739 0.34463 70.1707 24.7256)" fill="#4FAF53"/>
      <g opacity="0.8" filter="url(#filter0_f_1036_1274)">
        <path d="M70.7416 40.86C69.8683 44.0695 67.0847 36.9604 62.1682 35.6244C57.2517 34.2883 51.2492 39.0097 52.1224 35.8002C53.7067 33.435 57.9851 31.5928 62.9016 32.9288C67.8181 34.2649 70.7653 38.4009 70.7416 40.86Z" fill="url(#paint1_linear_1036_1274)" fill-opacity="0.3"/>
      </g>
      <g opacity="0.7" filter="url(#filter1_f_1036_1274)">
        <path d="M70.1101 39.1092C67.3987 37.2157 69.7888 44.4693 66.8709 48.6815C63.953 52.8938 56.3485 53.1678 59.0599 55.0612C61.7791 55.8466 66.2303 54.484 69.1482 50.2718C72.0661 46.0595 71.693 40.9785 70.1101 39.1092Z" fill="url(#paint2_linear_1036_1274)" fill-opacity="0.4"/>
      </g>
      <g opacity="0.6" filter="url(#filter2_f_1036_1274)">
        <path d="M59.5532 29.9481C56.1294 30.0953 53.3666 30.5382 53.3822 30.9373C53.3978 31.3364 56.1859 31.5406 59.6097 31.3934C63.0335 31.2462 67.8379 34.0597 67.8223 33.6606C67.8067 33.2615 62.977 29.8009 59.5532 29.9481Z" fill="#8BD8A0"/>
      </g>
      <g opacity="0.5" filter="url(#filter3_f_1036_1274)">
        <path d="M68.4241 54.5729C65.7064 56.6803 63.3071 58.1326 63.0651 57.8166C62.8231 57.5006 64.8301 55.536 67.5477 53.4286C70.2654 51.3212 72.1573 46.0492 72.3993 46.3652C72.6413 46.6812 71.1417 52.4655 68.4241 54.5729Z" fill="#8BD8A0"/>
      </g>
      <g opacity="0.7" filter="url(#filter4_f_1036_1274)">
        <path d="M69.5113 31.8517C68.2732 33.4051 67.6696 34.1079 67.5334 33.9983C67.3971 33.8887 67.7799 33.0083 69.0179 31.4549C69.7731 29.5174 72.07 30.4303 72.2062 30.5399C72.3425 30.6494 71.0952 29.6371 69.5113 31.8517Z" fill="#0D652D"/>
      </g>
      <g opacity="0.1" filter="url(#filter5_f_1036_1274)">
        <ellipse cx="0.266535" cy="3.0634" rx="0.266535" ry="3.0634" transform="matrix(0.79684 0.599557 -0.599596 0.803785 70.7549 28.7876)" fill="#202124"/>
      </g>
      <g opacity="0.3" filter="url(#filter6_f_1036_1274)">
        <path d="M70.7547 32.7661C69.4595 34.3913 68.877 35.1659 68.986 35.2535C69.095 35.3412 69.8542 34.7087 71.1494 33.0836C73.0151 31.2904 71.0561 30.0104 70.8764 30.2737C70.3482 30.8518 72.6155 30.6132 70.7547 32.7661Z" fill="white"/>
      </g>
      <ellipse opacity="0.15" cx="1.26582" cy="1.49177" rx="1.26582" ry="1.49177" transform="matrix(-0.807214 0.593014 -0.586139 -0.808203 72.8987 30.8811)" fill="url(#paint3_radial_1036_1274)" fill-opacity="0.9"/>
      <ellipse opacity="0.15" cx="1.26582" cy="1.49177" rx="1.26582" ry="1.49177" transform="matrix(-0.807214 0.593014 -0.586139 -0.808203 78.6284 46.2117)" fill="url(#paint4_radial_1036_1274)" fill-opacity="0.9"/>
      <g opacity="0.1" filter="url(#filter7_f_1036_1274)">
        <ellipse cx="0.266543" cy="3.06332" rx="0.266543" ry="3.06332" transform="matrix(0.21348 -0.979756 -0.974585 -0.211374 77.7163 48.2041)" fill="#202124"/>
      </g>
      <mask id="mask1_1036_1274" style="mask-type:alpha" maskUnits="userSpaceOnUse" x="71" y="43" width="3" height="6">
        <path d="M71.8457 46.8417C71.9948 46.1402 72.1341 44.6121 72.1851 43.9357L73.676 43.8228L73.524 48.1252C72.9025 47.9896 71.6967 47.5432 71.8457 46.8417Z" fill="black"/>
      </mask>
      <g mask="url(#mask1_1036_1274)">
        <g style="mix-blend-mode:multiply" opacity="0.3" filter="url(#filter8_f_1036_1274)">
          <path d="M72.1885 47.1458C72.2507 45.9662 72.1823 45.004 72.0357 44.9967C71.8892 44.9894 71.8109 45.8956 71.7487 47.0752C71.6865 48.2549 71.664 49.2613 71.8106 49.2686C71.9571 49.2759 72.1263 48.3255 72.1885 47.1458Z" fill="#0D652D"/>
        </g>
        <g style="mix-blend-mode:screen" opacity="0.3" filter="url(#filter9_f_1036_1274)">
          <path d="M72.2465 44.7569C72.2833 44.4211 72.2602 44.1432 72.195 44.1362C72.1298 44.1292 72.088 44.3861 72.0512 44.7219C72.0145 45.0577 71.9967 45.3452 72.0619 45.3522C72.1271 45.3592 72.2098 45.0926 72.2465 44.7569Z" fill="#81C995"/>
        </g>
      </g>
      <mask id="mask2_1036_1274" style="mask-type:alpha" maskUnits="userSpaceOnUse" x="66" y="31" width="5" height="5">
        <path d="M66.9862 33.7018C67.5558 34.1311 68.6569 35.1892 69.1363 35.6646L70.3325 34.7594L67.4132 31.6207C67.0336 32.1356 66.4167 33.2726 66.9862 33.7018Z" fill="black"/>
      </mask>
      <g mask="url(#mask2_1036_1274)">
        <g style="mix-blend-mode:multiply" opacity="0.3" filter="url(#filter10_f_1036_1274)">
          <path d="M67.0458 33.2454C67.8616 34.0924 68.4374 34.8623 68.3318 34.9652C68.2262 35.068 67.5765 34.4377 66.7606 33.5907C65.9448 32.7437 65.2717 32.0008 65.3773 31.898C65.4829 31.7952 66.2299 32.3984 67.0458 33.2454Z" fill="#0D652D"/>
        </g>
        <g style="mix-blend-mode:screen" opacity="0.3" filter="url(#filter11_f_1036_1274)">
          <path d="M68.6471 35.0048C68.8937 35.2332 69.0575 35.4578 69.0129 35.5063C68.9684 35.5549 68.7694 35.3893 68.5228 35.1608C68.2762 34.9324 68.0754 34.7277 68.12 34.6791C68.1645 34.6305 68.4005 34.7763 68.6471 35.0048Z" fill="#81C995"/>
        </g>
      </g>
      <g opacity="0.7" filter="url(#filter12_f_1036_1274)">
        <path d="M74.8468 46.8783C72.9009 46.5361 71.9879 46.4103 71.9572 46.5834C71.9265 46.7565 72.7897 47.1629 74.7356 47.5051C76.5699 48.4574 77.6984 46.2415 77.7291 46.0684C77.7598 45.8954 77.4849 47.4868 74.8468 46.8783Z" fill="#0D652D"/>
      </g>
      <g opacity="0.3" filter="url(#filter13_f_1036_1274)">
        <path d="M75.1723 45.3088C73.192 44.9605 72.274 44.7699 72.2998 44.6245C72.3255 44.4792 73.2854 44.4342 75.2657 44.7825C78.5017 44.82 78.8984 47.1036 77.2161 47.3228C76.4767 47.2801 77.9032 45.6676 75.1723 45.3088Z" fill="white"/>
      </g>
    </g>
    <ellipse cx="0.775692" cy="0.425841" rx="0.775692" ry="0.425841" transform="matrix(-0.370659 0.932021 -0.925979 -0.36947 64.6113 35.9583)" fill="url(#paint5_radial_1036_1274)" fill-opacity="0.7"/>
    <ellipse cx="0.775373" cy="0.425666" rx="0.775373" ry="0.425666" transform="matrix(-0.877114 -0.473939 -0.474582 0.883644 68.5029 46.8054)" fill="url(#paint6_radial_1036_1274)" fill-opacity="0.7"/>
    <g style="mix-blend-mode:multiply" opacity="0.09" filter="url(#filter14_f_1036_1274)">
      <path d="M62.5007 37.5316C63.5278 37.5655 63.947 36.9792 64.0282 36.6818C64.621 35.6934 63.641 35.0149 63.1845 34.8721C62.7279 34.7293 61.954 34.5638 61.2274 35.2694C60.5008 35.9751 61.2168 37.4891 62.5007 37.5316Z" fill="#011B04"/>
    </g>
    <g style="mix-blend-mode:multiply" opacity="0.09" filter="url(#filter15_f_1036_1274)">
      <path d="M65.8855 46.97C66.6463 46.2795 67.3378 46.4582 67.5884 46.6339C68.6673 47.0088 68.3515 48.1633 68.0943 48.5682C67.8372 48.9732 67.3528 49.6007 66.3514 49.5293C65.3501 49.4579 64.9345 47.8331 65.8855 46.97Z" fill="#011B04"/>
    </g>
    <path d="M66.0627 49.2327C66.642 49.6606 67.5298 49.4379 68.0459 48.7352C68.562 48.0326 68.5108 47.116 67.9316 46.6881C67.3524 46.2602 66.4645 46.4829 65.9484 47.1856C65.4323 47.8883 65.4835 48.8048 66.0627 49.2327Z" fill="#202124"/>
    <g filter="url(#filter16_d_1036_1274)">
      <path d="M62.4241 37.318C63.2673 37.5223 64.0865 37.131 64.2539 36.4441C64.4212 35.7571 63.8733 35.0346 63.0301 34.8303C62.187 34.6261 61.3678 35.0173 61.2004 35.7043C61.0331 36.3912 61.5809 37.1137 62.4241 37.318Z" fill="black"/>
    </g>
    <g filter="url(#filter17_d_1036_1274)">
      <path d="M65.9649 47.1782C66.4808 46.4758 67.3575 46.2452 67.9232 46.6631C68.4889 47.081 68.5292 47.9892 68.0134 48.6916C67.4975 49.394 66.6208 49.6246 66.0551 49.2067C65.4894 48.7888 65.4491 47.8806 65.9649 47.1782Z" fill="black"/>
    </g>
    <mask id="mask3_1036_1274" style="mask-type:alpha" maskUnits="userSpaceOnUse" x="61" y="34" width="4" height="4">
      <path d="M62.4244 37.318C63.2675 37.5223 64.0868 37.131 64.2541 36.4441C64.4215 35.7571 63.8736 35.0346 63.0304 34.8303C62.1872 34.6261 61.368 35.0173 61.2006 35.7043C61.0333 36.3912 61.5812 37.1137 62.4244 37.318Z" fill="#202124"/>
    </mask>
    <g mask="url(#mask3_1036_1274)">
      <g filter="url(#filter18_f_1036_1274)">
        <path d="M63.124 34.9787C62.4378 34.7393 61.8026 34.9173 61.5588 35.0671C62.0322 34.769 62.5496 34.6242 63.2037 34.8589C63.5647 34.9884 63.8457 35.284 64.0127 35.514C64.0408 35.55 64.0633 35.5842 64.0826 35.6163C64.1208 35.6761 64.1488 35.7271 64.1657 35.7636C64.1401 35.7229 64.1165 35.673 64.0826 35.6163C64.0621 35.5844 64.0388 35.55 64.0127 35.514C63.8889 35.3558 63.657 35.1646 63.124 34.9787Z" fill="#D8D8D8" fill-opacity="0.29"/>
      </g>
      <g opacity="0.8" filter="url(#filter19_f_1036_1274)">
        <path d="M63.6998 36.9844C64.3844 36.529 64.2414 35.887 64.0843 35.623C64.2788 35.8289 64.3024 36.3195 64.1569 36.5836C64.0406 36.795 63.8037 36.9389 63.6998 36.9844Z" fill="url(#paint7_linear_1036_1274)"/>
      </g>
    </g>
    <mask id="mask4_1036_1274" style="mask-type:alpha" maskUnits="userSpaceOnUse" x="65" y="46" width="4" height="4">
      <path d="M65.9661 47.1782C66.482 46.4758 67.3587 46.2452 67.9244 46.6631C68.4901 47.081 68.5305 47.9892 68.0146 48.6916C67.4988 49.394 66.622 49.6246 66.0563 49.2067C65.4907 48.7888 65.4503 47.8806 65.9661 47.1782Z" fill="#202124"/>
    </mask>
    <g mask="url(#mask4_1036_1274)">
      <path d="M68.1011 47.2023C67.8282 46.5711 67.2505 46.5441 66.9957 46.6094C67.1713 46.6189 67.5779 46.733 67.799 47.1135C68.0202 47.4939 67.7488 48.2052 67.5854 48.5133L67.8848 48.6339C68.0706 48.4197 68.374 47.8335 68.1011 47.2023Z" fill="url(#paint8_linear_1036_1274)"/>
      <g filter="url(#filter20_f_1036_1274)">
        <path d="M67.9852 48.5204C67.6117 49.1486 67.0119 49.424 66.7298 49.4673C67.2821 49.3888 67.7706 49.1644 68.1224 48.5605C68.3166 48.2273 68.3439 47.8188 68.3255 47.5343C68.3241 47.4885 68.3196 47.4476 68.3139 47.4106C68.3052 47.34 68.2942 47.2827 68.284 47.2438C68.2902 47.2917 68.3039 47.3452 68.3139 47.4106C68.3186 47.4483 68.3226 47.4897 68.3255 47.5343C68.3313 47.7357 68.2752 48.0325 67.9852 48.5204Z" fill="#D8D8D8" fill-opacity="0.29"/>
      </g>
    </g>
    <g opacity="0.8" filter="url(#filter21_f_1036_1274)">
      <path d="M63.5344 35.4779C63.3932 35.244 63.0611 35.1516 62.9126 35.1346L62.7696 35.3301C62.819 35.3357 62.9522 35.363 63.0891 35.4271C63.226 35.4911 63.3895 35.6026 63.4541 35.6503L63.5344 35.4779Z" fill="#E2DCE1"/>
    </g>
    <g opacity="0.8" filter="url(#filter22_f_1036_1274)">
      <path d="M67.9867 47.8817C68.0284 48.149 67.8427 48.4291 67.7447 48.5357L67.5189 48.4773C67.5516 48.4417 67.6321 48.3368 67.6926 48.2016C67.753 48.0664 67.8035 47.8783 67.8212 47.8011L67.9867 47.8817Z" fill="#E2DCE1"/>
    </g>
    <g opacity="0.8" filter="url(#filter23_f_1036_1274)">
      <path d="M62.5483 37.0126C62.4369 36.9165 62.2833 36.7602 62.2204 36.6941L61.9766 36.698C62.1049 36.865 62.2653 36.9667 62.3294 36.9967L62.5483 37.0126Z" fill="#E2DCE1"/>
      <path d="M63.6355 37.0416C63.6903 37.0044 63.7657 36.9296 63.7966 36.8969L63.7119 36.928C63.6577 36.9907 63.5505 37.0621 63.5037 37.09C63.5248 37.0894 63.5807 37.0789 63.6355 37.0416Z" fill="#E2DCE1"/>
    </g>
    <g opacity="0.8" filter="url(#filter24_f_1036_1274)">
      <path d="M66.2395 47.3223C66.2154 47.4684 66.1971 47.688 66.191 47.7796L66.0017 47.9348C65.9938 47.7234 66.0519 47.5413 66.0819 47.4767L66.2395 47.3223Z" fill="#E2DCE1"/>
      <path d="M67.0541 46.5946C67.1198 46.5876 67.2252 46.596 67.2697 46.6012L67.185 46.6323C67.1035 46.6193 66.9759 46.634 66.9223 46.6429C66.9388 46.6297 66.9884 46.6015 67.0541 46.5946Z" fill="#E2DCE1"/>
    </g>
    <g opacity="0.3" filter="url(#filter25_f_1036_1274)">
      <path d="M68.6075 50.9603C65.4978 52.102 69.6799 45.6973 67.9461 40.8842C66.2124 36.0712 58.932 33.8746 62.0416 32.733C64.8728 32.6645 68.8241 35.1124 70.5578 39.9254C72.2916 44.7385 70.6199 49.5554 68.6075 50.9603Z" fill="url(#paint9_linear_1036_1274)" fill-opacity="0.4"/>
    </g>
    <g opacity="0.2" filter="url(#filter26_f_1036_1274)">
      <path d="M68.6075 50.9603C65.4978 52.102 69.6799 45.6973 67.9461 40.8842C66.2124 36.0712 58.932 33.8746 62.0416 32.733C64.8728 32.6645 68.8241 35.1124 70.5578 39.9254C72.2916 44.7385 70.6199 49.5554 68.6075 50.9603Z" fill="url(#paint10_linear_1036_1274)" fill-opacity="0.4"/>
    </g>
    <path d="M40.0057 45.8173C39.6351 45.1564 39.0005 44.6821 38.2416 44.4987C37.4827 44.3153 36.6616 44.4378 35.959 44.8394C35.2564 45.241 34.7298 45.8886 34.4951 46.6399C34.2604 47.3912 34.4006 48.2985 34.7712 48.9595L37.4786 47.549L40.0057 45.8173Z" fill="#4FAF53"/>
    <path d="M59.6813 54.5674C51.3829 58.1472 41.8936 54.9024 37.3573 47.3217" stroke="#4FAF53" stroke-width="6.17799"/>
    <ellipse opacity="0.3" cx="1.78215" cy="2.34836" rx="1.78215" ry="2.34836" transform="matrix(0.256537 0.966534 -0.965307 0.261119 39.1282 43.9417)" fill="url(#paint11_radial_1036_1274)" fill-opacity="0.9"/>
    <path d="M38.7684 67.9675C38.6429 68.3646 38.8396 68.7937 39.2221 68.9577V68.9577C39.6046 69.1216 40.047 68.9662 40.2427 68.5993L42.1873 64.9544C42.5159 64.3385 42.2454 63.5695 41.6033 63.2943V63.2943C40.9612 63.0192 40.2254 63.3569 40.0147 64.0234L38.7684 67.9675Z" fill="#034ECA"/>
    <path d="M38.7684 67.9675C38.6429 68.3646 38.8396 68.7937 39.2221 68.9577V68.9577C39.6046 69.1216 40.047 68.9662 40.2427 68.5993L42.1873 64.9544C42.5159 64.3385 42.2454 63.5695 41.6033 63.2943V63.2943C40.9612 63.0192 40.2254 63.3569 40.0147 64.0234L38.7684 67.9675Z" fill="url(#paint12_linear_1036_1274)"/>
    <rect width="6.67237" height="35.5564" rx="3.33619" transform="matrix(-0.938642 -0.344894 -0.339164 0.940727 56.0625 32.8496)" fill="#4FAF53"/>
    <path d="M41.7612 65.3335C43.2389 65.4862 44.6866 64.6172 45.2178 63.1439L53.1619 41.1097C53.6331 39.8026 53.2489 38.3918 52.2979 37.5022L41.7612 65.3335Z" fill="url(#paint13_linear_1036_1274)"/>
    <rect x="51.3894" y="25.47" width="4.19244" height="8.24776" rx="2.09622" fill="#4285F4"/>
    <rect x="51.3894" y="25.47" width="4.19244" height="8.24776" rx="2.09622" fill="url(#paint14_linear_1036_1274)"/>
    <g opacity="0.5" filter="url(#filter27_f_1036_1274)">
      <path d="M57.6392 58.2224C56.8196 58.2933 58.1404 57.27 57.9384 54.8895C57.8023 53.2844 58.3564 51.9257 59.176 51.8548C59.9957 51.784 60.7705 53.0277 60.9067 54.6329C61.5853 57.2044 58.4589 58.1515 57.6392 58.2224Z" fill="#50B054"/>
    </g>
    <path d="M51.9734 35.9566C51.351 34.2417 52.2358 32.3389 53.9482 31.7097V31.7097C55.6554 31.0824 57.5397 31.9586 58.1602 33.6682L68.0405 60.8904C68.6629 62.6052 67.778 64.508 66.0657 65.1372V65.1372C64.3585 65.7645 62.4741 64.8883 61.8536 63.1787L51.9734 35.9566Z" fill="url(#paint15_linear_1036_1274)"/>
    <path d="M50.8521 32.6323C49.6528 32.9412 48.6204 33.8232 48.1651 35.0854L38.8938 60.7886C38.3287 62.3551 38.8937 64.0498 40.1023 64.8094L50.8521 32.6323Z" fill="url(#paint16_linear_1036_1274)"/>
    <ellipse opacity="0.3" cx="1.20877" cy="1.47945" rx="1.20877" ry="1.47945" transform="matrix(0.703745 0.710453 -0.703745 0.710453 53.002 24.9563)" fill="url(#paint17_radial_1036_1274)" fill-opacity="0.9"/>
    <ellipse opacity="0.3" cx="2.94416" cy="4.6171" rx="2.94416" ry="4.6171" transform="matrix(0.863959 0.503561 -0.496447 0.868067 49.4165 32.958)" fill="url(#paint18_radial_1036_1274)" fill-opacity="0.9"/>
    <path d="M57.4637 35.5626C57.4637 37.8266 55.6485 39.6436 53.4319 39.6436C51.2153 39.6436 49.4001 37.8266 49.4001 35.5626C49.4001 33.2986 51.2153 31.4816 53.4319 31.4816C55.6485 31.4816 57.4637 33.2986 57.4637 35.5626Z" fill="white" stroke="#202124" stroke-width="2.25626"/>
    <path d="M57.4637 35.5626C57.4637 37.8266 55.6485 39.6436 53.4319 39.6436C51.2153 39.6436 49.4001 37.8266 49.4001 35.5626C49.4001 33.2986 51.2153 31.4816 53.4319 31.4816C55.6485 31.4816 57.4637 33.2986 57.4637 35.5626Z" fill="#4FAF53" stroke="#202124" stroke-width="2.25626"/>
  </g>
  <defs>
    <filter id="filter0_f_1036_1274" x="51.5159" y="31.9577" width="19.7471" height="10.2476" filterUnits="userSpaceOnUse" color-interpolation-filters="sRGB">
      <feFlood flood-opacity="0" result="BackgroundImageFix"/>
      <feBlend mode="normal" in="SourceGraphic" in2="BackgroundImageFix" result="shape"/>
      <feGaussianBlur stdDeviation="0.260628" result="effect1_foregroundBlur_1036_1274"/>
    </filter>
    <filter id="filter1_f_1036_1274" x="57.7035" y="38.0182" width="14.4026" height="18.0362" filterUnits="userSpaceOnUse" color-interpolation-filters="sRGB">
      <feFlood flood-opacity="0" result="BackgroundImageFix"/>
      <feBlend mode="normal" in="SourceGraphic" in2="BackgroundImageFix" result="shape"/>
      <feGaussianBlur stdDeviation="0.390941" result="effect1_foregroundBlur_1036_1274"/>
    </filter>
    <filter id="filter2_f_1036_1274" x="52.9911" y="29.5527" width="15.2221" height="4.53774" filterUnits="userSpaceOnUse" color-interpolation-filters="sRGB">
      <feFlood flood-opacity="0" result="BackgroundImageFix"/>
      <feBlend mode="normal" in="SourceGraphic" in2="BackgroundImageFix" result="shape"/>
      <feGaussianBlur stdDeviation="0.195471" result="effect1_foregroundBlur_1036_1274"/>
    </filter>
    <filter id="filter3_f_1036_1274" x="62.6545" y="45.9606" width="10.161" height="12.2902" filterUnits="userSpaceOnUse" color-interpolation-filters="sRGB">
      <feFlood flood-opacity="0" result="BackgroundImageFix"/>
      <feBlend mode="normal" in="SourceGraphic" in2="BackgroundImageFix" result="shape"/>
      <feGaussianBlur stdDeviation="0.195471" result="effect1_foregroundBlur_1036_1274"/>
    </filter>
    <filter id="filter4_f_1036_1274" x="66.9861" y="29.7085" width="5.75149" height="4.82205" filterUnits="userSpaceOnUse" color-interpolation-filters="sRGB">
      <feFlood flood-opacity="0" result="BackgroundImageFix"/>
      <feBlend mode="normal" in="SourceGraphic" in2="BackgroundImageFix" result="shape"/>
      <feGaussianBlur stdDeviation="0.260628" result="effect1_foregroundBlur_1036_1274"/>
    </filter>
    <filter id="filter5_f_1036_1274" x="67.1509" y="28.8118" width="3.95911" height="5.19569" filterUnits="userSpaceOnUse" color-interpolation-filters="sRGB">
      <feFlood flood-opacity="0" result="BackgroundImageFix"/>
      <feBlend mode="normal" in="SourceGraphic" in2="BackgroundImageFix" result="shape"/>
      <feGaussianBlur stdDeviation="0.0651569" result="effect1_foregroundBlur_1036_1274"/>
    </filter>
    <filter id="filter6_f_1036_1274" x="68.5822" y="29.8483" width="3.75796" height="5.8041" filterUnits="userSpaceOnUse" color-interpolation-filters="sRGB">
      <feFlood flood-opacity="0" result="BackgroundImageFix"/>
      <feBlend mode="normal" in="SourceGraphic" in2="BackgroundImageFix" result="shape"/>
      <feGaussianBlur stdDeviation="0.195471" result="effect1_foregroundBlur_1036_1274"/>
    </filter>
    <filter id="filter7_f_1036_1274" x="71.6714" y="46.4669" width="6.23255" height="1.65736" filterUnits="userSpaceOnUse" color-interpolation-filters="sRGB">
      <feFlood flood-opacity="0" result="BackgroundImageFix"/>
      <feBlend mode="normal" in="SourceGraphic" in2="BackgroundImageFix" result="shape"/>
      <feGaussianBlur stdDeviation="0.0651569" result="effect1_foregroundBlur_1036_1274"/>
    </filter>
    <filter id="filter8_f_1036_1274" x="71.4401" y="44.736" width="1.032" height="4.79323" filterUnits="userSpaceOnUse" color-interpolation-filters="sRGB">
      <feFlood flood-opacity="0" result="BackgroundImageFix"/>
      <feBlend mode="normal" in="SourceGraphic" in2="BackgroundImageFix" result="shape"/>
      <feGaussianBlur stdDeviation="0.130314" result="effect1_foregroundBlur_1036_1274"/>
    </filter>
    <filter id="filter9_f_1036_1274" x="71.8619" y="43.9796" width="0.558358" height="1.52906" filterUnits="userSpaceOnUse" color-interpolation-filters="sRGB">
      <feFlood flood-opacity="0" result="BackgroundImageFix"/>
      <feBlend mode="normal" in="SourceGraphic" in2="BackgroundImageFix" result="shape"/>
      <feGaussianBlur stdDeviation="0.0781882" result="effect1_foregroundBlur_1036_1274"/>
    </filter>
    <filter id="filter10_f_1036_1274" x="65.1058" y="31.6258" width="3.49904" height="3.61085" filterUnits="userSpaceOnUse" color-interpolation-filters="sRGB">
      <feFlood flood-opacity="0" result="BackgroundImageFix"/>
      <feBlend mode="normal" in="SourceGraphic" in2="BackgroundImageFix" result="shape"/>
      <feGaussianBlur stdDeviation="0.130314" result="effect1_foregroundBlur_1036_1274"/>
    </filter>
    <filter id="filter11_f_1036_1274" x="67.9574" y="34.5133" width="1.21925" height="1.15797" filterUnits="userSpaceOnUse" color-interpolation-filters="sRGB">
      <feFlood flood-opacity="0" result="BackgroundImageFix"/>
      <feBlend mode="normal" in="SourceGraphic" in2="BackgroundImageFix" result="shape"/>
      <feGaussianBlur stdDeviation="0.0781883" result="effect1_foregroundBlur_1036_1274"/>
    </filter>
    <filter id="filter12_f_1036_1274" x="71.435" y="45.5339" width="6.81741" height="2.72928" filterUnits="userSpaceOnUse" color-interpolation-filters="sRGB">
      <feFlood flood-opacity="0" result="BackgroundImageFix"/>
      <feBlend mode="normal" in="SourceGraphic" in2="BackgroundImageFix" result="shape"/>
      <feGaussianBlur stdDeviation="0.260628" result="effect1_foregroundBlur_1036_1274"/>
    </filter>
    <filter id="filter13_f_1036_1274" x="71.9084" y="44.1249" width="6.67422" height="3.58877" filterUnits="userSpaceOnUse" color-interpolation-filters="sRGB">
      <feFlood flood-opacity="0" result="BackgroundImageFix"/>
      <feBlend mode="normal" in="SourceGraphic" in2="BackgroundImageFix" result="shape"/>
      <feGaussianBlur stdDeviation="0.195471" result="effect1_foregroundBlur_1036_1274"/>
    </filter>
    <filter id="filter14_f_1036_1274" x="60.8588" y="34.6681" width="3.43274" height="2.943" filterUnits="userSpaceOnUse" color-interpolation-filters="sRGB">
      <feFlood flood-opacity="0" result="BackgroundImageFix"/>
      <feBlend mode="normal" in="SourceGraphic" in2="BackgroundImageFix" result="shape"/>
      <feGaussianBlur stdDeviation="0.0390942" result="effect1_foregroundBlur_1036_1274"/>
    </filter>
    <filter id="filter15_f_1036_1274" x="65.2719" y="46.3962" width="3.15125" height="3.21692" filterUnits="userSpaceOnUse" color-interpolation-filters="sRGB">
      <feFlood flood-opacity="0" result="BackgroundImageFix"/>
      <feBlend mode="normal" in="SourceGraphic" in2="BackgroundImageFix" result="shape"/>
      <feGaussianBlur stdDeviation="0.0390942" result="effect1_foregroundBlur_1036_1274"/>
    </filter>
    <filter id="filter16_d_1036_1274" x="61.1313" y="34.7761" width="3.16565" height="2.64807" filterUnits="userSpaceOnUse" color-interpolation-filters="sRGB">
      <feFlood flood-opacity="0" result="BackgroundImageFix"/>
      <feColorMatrix in="SourceAlpha" type="matrix" values="0 0 0 0 0 0 0 0 0 0 0 0 0 0 0 0 0 0 127 0" result="hardAlpha"/>
      <feOffset dx="-0.0130314" dy="0.0260628"/>
      <feGaussianBlur stdDeviation="0.0130314"/>
      <feComposite in2="hardAlpha" operator="out"/>
      <feColorMatrix type="matrix" values="0 0 0 0 0.0156863 0 0 0 0 0.231373 0 0 0 0 0.0666667 0 0 0 0.7 0"/>
      <feBlend mode="normal" in2="BackgroundImageFix" result="effect1_dropShadow_1036_1274"/>
      <feBlend mode="normal" in="SourceGraphic" in2="effect1_dropShadow_1036_1274" result="shape"/>
    </filter>
    <filter id="filter17_d_1036_1274" x="65.5639" y="46.4548" width="2.82434" height="3.01233" filterUnits="userSpaceOnUse" color-interpolation-filters="sRGB">
      <feFlood flood-opacity="0" result="BackgroundImageFix"/>
      <feColorMatrix in="SourceAlpha" type="matrix" values="0 0 0 0 0 0 0 0 0 0 0 0 0 0 0 0 0 0 127 0" result="hardAlpha"/>
      <feOffset dx="-0.0130314" dy="0.0260628"/>
      <feGaussianBlur stdDeviation="0.0130314"/>
      <feComposite in2="hardAlpha" operator="out"/>
      <feColorMatrix type="matrix" values="0 0 0 0 0.0156863 0 0 0 0 0.231373 0 0 0 0 0.0666667 0 0 0 0.7 0"/>
      <feBlend mode="normal" in2="BackgroundImageFix" result="effect1_dropShadow_1036_1274"/>
      <feBlend mode="normal" in="SourceGraphic" in2="effect1_dropShadow_1036_1274" result="shape"/>
    </filter>
    <filter id="filter18_f_1036_1274" x="61.5328" y="34.7161" width="2.65906" height="1.07361" filterUnits="userSpaceOnUse" color-interpolation-filters="sRGB">
      <feFlood flood-opacity="0" result="BackgroundImageFix"/>
      <feBlend mode="normal" in="SourceGraphic" in2="BackgroundImageFix" result="shape"/>
      <feGaussianBlur stdDeviation="0.0130314" result="effect1_foregroundBlur_1036_1274"/>
    </filter>
    <filter id="filter19_f_1036_1274" x="63.6932" y="35.6165" width="0.564057" height="1.37436" filterUnits="userSpaceOnUse" color-interpolation-filters="sRGB">
      <feFlood flood-opacity="0" result="BackgroundImageFix"/>
      <feBlend mode="normal" in="SourceGraphic" in2="BackgroundImageFix" result="shape"/>
      <feGaussianBlur stdDeviation="0.00325785" result="effect1_foregroundBlur_1036_1274"/>
    </filter>
    <filter id="filter20_f_1036_1274" x="66.7037" y="47.2178" width="1.65271" height="2.27551" filterUnits="userSpaceOnUse" color-interpolation-filters="sRGB">
      <feFlood flood-opacity="0" result="BackgroundImageFix"/>
      <feBlend mode="normal" in="SourceGraphic" in2="BackgroundImageFix" result="shape"/>
      <feGaussianBlur stdDeviation="0.0130314" result="effect1_foregroundBlur_1036_1274"/>
    </filter>
    <filter id="filter21_f_1036_1274" x="62.7435" y="35.1085" width="0.817018" height="0.567995" filterUnits="userSpaceOnUse" color-interpolation-filters="sRGB">
      <feFlood flood-opacity="0" result="BackgroundImageFix"/>
      <feBlend mode="normal" in="SourceGraphic" in2="BackgroundImageFix" result="shape"/>
      <feGaussianBlur stdDeviation="0.0130314" result="effect1_foregroundBlur_1036_1274"/>
    </filter>
    <filter id="filter22_f_1036_1274" x="67.493" y="47.775" width="0.525758" height="0.786745" filterUnits="userSpaceOnUse" color-interpolation-filters="sRGB">
      <feFlood flood-opacity="0" result="BackgroundImageFix"/>
      <feBlend mode="normal" in="SourceGraphic" in2="BackgroundImageFix" result="shape"/>
      <feGaussianBlur stdDeviation="0.0130314" result="effect1_foregroundBlur_1036_1274"/>
    </filter>
    <filter id="filter23_f_1036_1274" x="61.9635" y="36.6811" width="1.84613" height="0.422059" filterUnits="userSpaceOnUse" color-interpolation-filters="sRGB">
      <feFlood flood-opacity="0" result="BackgroundImageFix"/>
      <feBlend mode="normal" in="SourceGraphic" in2="BackgroundImageFix" result="shape"/>
      <feGaussianBlur stdDeviation="0.00651569" result="effect1_foregroundBlur_1036_1274"/>
    </filter>
    <filter id="filter24_f_1036_1274" x="65.9879" y="46.5788" width="1.29486" height="1.36908" filterUnits="userSpaceOnUse" color-interpolation-filters="sRGB">
      <feFlood flood-opacity="0" result="BackgroundImageFix"/>
      <feBlend mode="normal" in="SourceGraphic" in2="BackgroundImageFix" result="shape"/>
      <feGaussianBlur stdDeviation="0.00651569" result="effect1_foregroundBlur_1036_1274"/>
    </filter>
    <filter id="filter25_f_1036_1274" x="60.7568" y="32.2104" width="11.0462" height="19.4051" filterUnits="userSpaceOnUse" color-interpolation-filters="sRGB">
      <feFlood flood-opacity="0" result="BackgroundImageFix"/>
      <feBlend mode="normal" in="SourceGraphic" in2="BackgroundImageFix" result="shape"/>
      <feGaussianBlur stdDeviation="0.260628" result="effect1_foregroundBlur_1036_1274"/>
    </filter>
    <filter id="filter26_f_1036_1274" x="60.7568" y="32.2104" width="11.0462" height="19.4051" filterUnits="userSpaceOnUse" color-interpolation-filters="sRGB">
      <feFlood flood-opacity="0" result="BackgroundImageFix"/>
      <feBlend mode="normal" in="SourceGraphic" in2="BackgroundImageFix" result="shape"/>
      <feGaussianBlur stdDeviation="0.260628" result="effect1_foregroundBlur_1036_1274"/>
    </filter>
    <filter id="filter27_f_1036_1274" x="56.8043" y="51.288" width="4.76216" height="7.50191" filterUnits="userSpaceOnUse" color-interpolation-filters="sRGB">
      <feFlood flood-opacity="0" result="BackgroundImageFix"/>
      <feBlend mode="normal" in="SourceGraphic" in2="BackgroundImageFix" result="shape"/>
      <feGaussianBlur stdDeviation="0.282032" result="effect1_foregroundBlur_1036_1274"/>
    </filter>
    <linearGradient id="paint0_linear_1036_1274" x1="67.6756" y1="68.8206" x2="65.5432" y2="67.6228" gradientUnits="userSpaceOnUse">
      <stop stop-color="#4285F4"/>
      <stop offset="1" stop-color="#034ECA"/>
    </linearGradient>
    <linearGradient id="paint1_linear_1036_1274" x1="62.9484" y1="32.7568" x2="61.7299" y2="37.2408" gradientUnits="userSpaceOnUse">
      <stop stop-color="#A8F0B9"/>
      <stop offset="1" stop-color="#ADEEBC" stop-opacity="0"/>
    </linearGradient>
    <linearGradient id="paint2_linear_1036_1274" x1="69.2935" y1="50.3733" x2="65.4957" y2="47.7425" gradientUnits="userSpaceOnUse">
      <stop stop-color="#A8F0B9"/>
      <stop offset="1" stop-color="#ADEEBC" stop-opacity="0"/>
    </linearGradient>
    <radialGradient id="paint3_radial_1036_1274" cx="0" cy="0" r="1" gradientUnits="userSpaceOnUse" gradientTransform="translate(1.26582 1.49177) rotate(89.4828) scale(0.93775 0.678488)">
      <stop stop-color="white"/>
      <stop offset="0.948484" stop-color="white" stop-opacity="0"/>
    </radialGradient>
    <radialGradient id="paint4_radial_1036_1274" cx="0" cy="0" r="1" gradientUnits="userSpaceOnUse" gradientTransform="translate(1.26582 1.49177) rotate(89.4828) scale(0.93775 0.678488)">
      <stop stop-color="white"/>
      <stop offset="0.948484" stop-color="white" stop-opacity="0"/>
    </radialGradient>
    <radialGradient id="paint5_radial_1036_1274" cx="0" cy="0" r="1" gradientUnits="userSpaceOnUse" gradientTransform="translate(0.775692 0.425841) rotate(91.5321) scale(0.365532 0.665893)">
      <stop stop-color="#93E19F"/>
      <stop offset="1" stop-color="#93E19F" stop-opacity="0"/>
    </radialGradient>
    <radialGradient id="paint6_radial_1036_1274" cx="0" cy="0" r="1" gradientUnits="userSpaceOnUse" gradientTransform="translate(0.775373 0.425666) rotate(91.5321) scale(0.365382 0.665619)">
      <stop stop-color="#93E19F"/>
      <stop offset="1" stop-color="#93E19F" stop-opacity="0"/>
    </radialGradient>
    <linearGradient id="paint7_linear_1036_1274" x1="64.4111" y1="35.5892" x2="63.3632" y2="36.0208" gradientUnits="userSpaceOnUse">
      <stop stop-color="#E2DDE2"/>
      <stop offset="1" stop-color="#E2DDE2" stop-opacity="0"/>
    </linearGradient>
    <linearGradient id="paint8_linear_1036_1274" x1="68.1598" y1="47.3575" x2="67.2829" y2="47.6734" gradientUnits="userSpaceOnUse">
      <stop stop-color="#373637"/>
      <stop offset="1" stop-color="#373637" stop-opacity="0"/>
    </linearGradient>
    <linearGradient id="paint9_linear_1036_1274" x1="70.7245" y1="39.8642" x2="66.3708" y2="41.4325" gradientUnits="userSpaceOnUse">
      <stop stop-color="#A8F0B9"/>
      <stop offset="1" stop-color="#ADEEBC" stop-opacity="0"/>
    </linearGradient>
    <linearGradient id="paint10_linear_1036_1274" x1="70.7245" y1="39.8642" x2="66.3708" y2="41.4325" gradientUnits="userSpaceOnUse">
      <stop stop-color="#A8F0B9"/>
      <stop offset="1" stop-color="#ADEEBC" stop-opacity="0"/>
    </linearGradient>
    <radialGradient id="paint11_radial_1036_1274" cx="0" cy="0" r="1" gradientUnits="userSpaceOnUse" gradientTransform="translate(1.78215 2.34836) rotate(89.5374) scale(1.47621 0.955252)">
      <stop stop-color="white"/>
      <stop offset="0.948484" stop-color="white" stop-opacity="0"/>
    </radialGradient>
    <linearGradient id="paint12_linear_1036_1274" x1="39.6722" y1="68.278" x2="41.8846" y2="66.9844" gradientUnits="userSpaceOnUse">
      <stop stop-color="#4FAF53"/>
      <stop offset="1" stop-color="#0D652D"/>
    </linearGradient>
    <linearGradient id="paint13_linear_1036_1274" x1="50.3808" y1="49.8331" x2="48.614" y2="49.1762" gradientUnits="userSpaceOnUse">
      <stop stop-color="#34A853"/>
      <stop offset="1" stop-color="#93E19F" stop-opacity="0"/>
    </linearGradient>
    <linearGradient id="paint14_linear_1036_1274" x1="53.4856" y1="27.8373" x2="55.3463" y2="29.4955" gradientUnits="userSpaceOnUse">
      <stop stop-color="#4285F4"/>
      <stop offset="1" stop-color="#034ECA"/>
    </linearGradient>
    <linearGradient id="paint15_linear_1036_1274" x1="55.5502" y1="38.7996" x2="61.2167" y2="50.5309" gradientUnits="userSpaceOnUse">
      <stop stop-color="#034DC9"/>
      <stop offset="1" stop-color="#4285F4"/>
    </linearGradient>
    <linearGradient id="paint16_linear_1036_1274" x1="42.0477" y1="48.5004" x2="44.9935" y2="49.5014" gradientUnits="userSpaceOnUse">
      <stop stop-color="white" stop-opacity="0.8"/>
      <stop offset="1" stop-color="#93E19F" stop-opacity="0"/>
    </linearGradient>
    <radialGradient id="paint17_radial_1036_1274" cx="0" cy="0" r="1" gradientUnits="userSpaceOnUse" gradientTransform="translate(1.20877 1.47945) rotate(89.502) scale(0.930002 0.64791)">
      <stop stop-color="white"/>
      <stop offset="0.948484" stop-color="white" stop-opacity="0"/>
    </radialGradient>
    <radialGradient id="paint18_radial_1036_1274" cx="0" cy="0" r="1" gradientUnits="userSpaceOnUse" gradientTransform="translate(2.94416 4.6171) rotate(89.6113) scale(2.90233 1.57812)">
      <stop stop-color="white"/>
      <stop offset="0.948484" stop-color="white" stop-opacity="0"/>
    </radialGradient>
  </defs>
</svg>
